<?xml version="1.0" encoding="utf-8"?>
<!-- Generator: Adobe Illustrator 15.1.0, SVG Export Plug-In . SVG Version: 6.00 Build 0)  -->
<!DOCTYPE svg PUBLIC "-//W3C//DTD SVG 1.1//EN" "http://www.w3.org/Graphics/SVG/1.1/DTD/svg11.dtd">
<svg version="1.1" id="Ebene_1" xmlns="http://www.w3.org/2000/svg" xmlns:xlink="http://www.w3.org/1999/xlink" x="0px" y="0px"
	 width="1004px" height="771px" viewBox="0 0 1004 771" enable-background="new 0 0 1004 771" xml:space="preserve">
<path fill="#FFFFFF" d="M0.801,771.301h1004.399V0H0.801V771.301z"/>
<g id="patch_2">
	<path fill="#EEEEEE" d="M122.137,638.062h778.41V21.021h-778.41V638.062z"/>
</g>
<g id="matplotlib.axis_1">
	<g id="xtick_1">
		<g id="line2d_1">
			<g>
				<defs>
					<rect id="SVGID_1_" x="122.137" y="21.021" width="778.41" height="617.041"/>
				</defs>
				<clipPath id="SVGID_2_">
					<use xlink:href="#SVGID_1_"  overflow="visible"/>
				</clipPath>
				
					<path clip-path="url(#SVGID_2_)" fill="none" stroke="#000000" stroke-width="0.5" stroke-linejoin="round" stroke-dasharray="1,3" d="
					M214.805,638.062V21.021"/>
			</g>
		</g>
		<g id="line2d_2">
			<g>
				<g>
					<path id="m080760d0c3" fill="#555555" stroke="#555555" stroke-width="0.5" stroke-linejoin="round" d="M214.805,638.062
						L214.805,638.062"/>
				</g>
			</g>
		</g>
		<g id="line2d_3">
			<g>
				<g>
					<path id="m080760d0c3_1_" fill="#555555" stroke="#555555" stroke-width="0.5" stroke-linejoin="round" d="M214.805,21.021
						L214.805,21.021"/>
				</g>
			</g>
		</g>
		<g id="text_1">
			<g transform="translate(222.392857143 747.5715625)rotate(-90.0)scale(0.1 -0.1)">
				<g>
					<path id="BitstreamVeraSans-Roman-20" stroke="#555555" stroke-width="0.5" stroke-linejoin="round" d="M561.08,34.126"/>
				</g>
				<g>
					<path id="BitstreamVeraSans-Roman-43" fill="#555555" d="M657.271,101.411V91.021c-3.32,3.086-6.855,5.4-10.625,6.914
						c-3.76,1.533-7.754,2.305-11.982,2.305c-8.33,0-14.707-2.549-19.141-7.646c-4.424-5.088-6.641-12.461-6.641-22.09
						c0-9.609,2.217-16.953,6.641-22.051c4.434-5.088,10.811-7.637,19.141-7.637c4.229,0,8.223,0.762,11.982,2.295
						c3.77,1.533,7.305,3.848,10.625,6.934V39.732c-3.447-2.344-7.1-4.102-10.967-5.273c-3.848-1.172-7.92-1.758-12.217-1.758
						c-11.045,0-19.736,3.379-26.094,10.127c-6.348,6.768-9.512,15.986-9.512,27.676c0,11.719,3.164,20.947,9.512,27.705
						c6.357,6.758,15.049,10.137,26.094,10.137c4.355,0,8.457-0.576,12.314-1.738C650.269,105.454,653.892,103.716,657.271,101.411"
						/>
				</g>
				<g>
					<path id="BitstreamVeraSans-Roman-44" fill="#555555" d="M682.369,98.921V42.232h11.914c10.068,0,17.432,2.275,22.1,6.836
						s7.002,11.758,7.002,21.592c0,9.756-2.334,16.914-7.002,21.455s-12.031,6.807-22.1,6.807H682.369z M672.505,107.036h20.264
						c14.131,0,24.492-2.939,31.094-8.818c6.621-5.869,9.922-15.059,9.922-27.559c0-12.578-3.32-21.807-9.971-27.705
						c-6.631-5.889-16.982-8.828-31.045-8.828h-20.264V107.036z"/>
				</g>
				<g>
					<path id="BitstreamVeraSans-Roman-55" fill="#555555" d="M748.384,107.036h9.922V62.739c0-7.812,1.406-13.437,4.229-16.875
						c2.842-3.428,7.432-5.146,13.789-5.146c6.309,0,10.879,1.719,13.711,5.146c2.842,3.438,4.258,9.063,4.258,16.875v44.297h9.902
						V61.519c0-9.502-2.354-16.68-7.061-21.533c-4.697-4.854-11.641-7.285-20.811-7.285c-9.219,0-16.182,2.432-20.898,7.285
						c-4.697,4.854-7.041,12.031-7.041,21.533V107.036z"/>
				</g>
				<g>
					<path id="BitstreamVeraSans-Roman-2f" fill="#555555" d="M838.277,107.036h8.301l-25.391-82.187h-8.301L838.277,107.036z"/>
				</g>
				<g>
					<path id="BitstreamVeraSans-Roman-43_1_" fill="#555555" d="M910.982,101.411V91.021c-3.32,3.086-6.855,5.4-10.625,6.914
						c-3.76,1.533-7.754,2.305-11.982,2.305c-8.33,0-14.707-2.549-19.141-7.646c-4.424-5.088-6.641-12.461-6.641-22.09
						c0-9.609,2.217-16.953,6.641-22.051c4.434-5.088,10.811-7.637,19.141-7.637c4.229,0,8.223,0.762,11.982,2.295
						c3.77,1.533,7.305,3.848,10.625,6.934V39.732c-3.447-2.344-7.1-4.102-10.967-5.273c-3.848-1.172-7.92-1.758-12.217-1.758
						c-11.045,0-19.736,3.379-26.094,10.127c-6.348,6.768-9.512,15.986-9.512,27.676c0,11.719,3.164,20.947,9.512,27.705
						c6.357,6.758,15.049,10.137,26.094,10.137c4.355,0,8.457-0.576,12.314-1.738C903.98,105.454,907.603,103.716,910.982,101.411"
						/>
				</g>
				<g>
					<path id="BitstreamVeraSans-Roman-53" fill="#555555" d="M969.917,104.644v-9.629c-3.74,1.797-7.266,3.125-10.596,4.004
						c-3.32,0.889-6.523,1.328-9.619,1.328c-5.361,0-9.502-1.045-12.422-3.125s-4.375-5.049-4.375-8.896
						c0-3.223,0.967-5.664,2.9-7.305c1.943-1.641,5.615-2.959,11.016-3.975l5.957-1.221c7.354-1.406,12.783-3.867,16.279-7.402
						c3.506-3.535,5.254-8.252,5.254-14.17c0-7.07-2.373-12.432-7.109-16.084c-4.727-3.643-11.67-5.469-20.811-5.469
						c-3.447,0-7.119,0.391-11.016,1.172c-3.887,0.781-7.91,1.943-12.08,3.477v10.156c3.994-2.246,7.92-3.936,11.768-5.078
						c3.838-1.143,7.617-1.709,11.328-1.709c5.625,0,9.961,1.104,13.027,3.311c3.066,2.227,4.59,5.381,4.59,9.492
						c0,3.564-1.094,6.367-3.291,8.389s-5.801,3.535-10.811,4.541l-6.016,1.172c-7.354,1.465-12.676,3.75-15.977,6.875
						c-3.281,3.125-4.922,7.48-4.922,13.047c0,6.455,2.275,11.533,6.816,15.234c4.541,3.711,10.801,5.566,18.77,5.566
						c3.428,0,6.904-0.313,10.449-0.938C962.583,106.792,966.216,105.874,969.917,104.644"/>
				</g>
				<g>
					<path id="BitstreamVeraSans-Roman-55_1_" fill="#555555" d="M988.57,107.036h9.922V62.739c0-7.812,1.406-13.437,4.229-16.875
						c2.842-3.428,7.432-5.146,13.789-5.146c6.309,0,10.879,1.719,13.711,5.146c2.842,3.438,4.258,9.063,4.258,16.875v44.297h9.902
						V61.519c0-9.502-2.354-16.68-7.061-21.533c-4.697-4.854-11.641-7.285-20.811-7.285c-9.219,0-16.182,2.432-20.898,7.285
						c-4.697,4.854-7.041,12.031-7.041,21.533V107.036z"/>
				</g>
			</g>
		</g>
	</g>
	<g id="xtick_2">
		<g id="line2d_4">
			<g>
				<defs>
					<rect id="SVGID_3_" x="122.138" y="21.021" width="778.41" height="617.041"/>
				</defs>
				<clipPath id="SVGID_4_">
					<use xlink:href="#SVGID_3_"  overflow="visible"/>
				</clipPath>
				
					<path clip-path="url(#SVGID_4_)" fill="none" stroke="#000000" stroke-width="0.5" stroke-linejoin="round" stroke-dasharray="1,3" d="
					M363.073,638.062V21.021"/>
			</g>
		</g>
		<g id="line2d_5">
			<g>
				<g>
					<path id="m080760d0c3_2_" fill="#555555" stroke="#555555" stroke-width="0.5" stroke-linejoin="round" d="M363.074,638.062
						L363.074,638.062"/>
				</g>
			</g>
		</g>
		<g id="line2d_6">
			<g>
				<g>
					<path id="m080760d0c3_3_" fill="#555555" stroke="#555555" stroke-width="0.5" stroke-linejoin="round" d="M363.074,21.021
						L363.074,21.021"/>
				</g>
			</g>
		</g>
		<g id="text_2">
			<g transform="translate(370.268459821 722.6934375)rotate(-90.0)scale(0.1 -0.1)">
				<g>
					<path id="BitstreamVeraSans-Roman-20_1_" stroke="#555555" stroke-width="0.5" stroke-linejoin="round" d="M561.078,34.132"/>
				</g>
				<g>
					<path id="BitstreamVeraSans-Roman-53_1_" fill="#555555" d="M646.381,104.639V95.02c-3.73,1.787-7.266,3.125-10.586,3.994
						c-3.33,0.889-6.533,1.328-9.629,1.328c-5.361,0-9.502-1.035-12.422-3.125c-2.92-2.08-4.375-5.039-4.375-8.887
						c0-3.232,0.967-5.664,2.91-7.314c1.934-1.631,5.605-2.959,11.016-3.965l5.947-1.221c7.354-1.406,12.783-3.877,16.279-7.402
						c3.506-3.535,5.254-8.262,5.254-14.18c0-7.07-2.373-12.432-7.109-16.074c-4.727-3.643-11.67-5.469-20.811-5.469
						c-3.447,0-7.119,0.391-11.016,1.172c-3.887,0.781-7.91,1.934-12.08,3.467v10.156c4.004-2.236,7.92-3.926,11.768-5.078
						c3.838-1.133,7.617-1.699,11.328-1.699c5.625,0,9.971,1.104,13.027,3.311c3.066,2.217,4.6,5.381,4.6,9.482
						c0,3.574-1.104,6.377-3.301,8.389c-2.197,2.021-5.801,3.545-10.811,4.551l-6.016,1.172c-7.354,1.455-12.676,3.75-15.967,6.875
						c-3.281,3.125-4.922,7.471-4.922,13.047c0,6.445,2.266,11.523,6.807,15.234s10.801,5.566,18.77,5.566
						c3.428,0,6.914-0.313,10.449-0.938C639.047,106.798,642.68,105.87,646.381,104.639"/>
				</g>
				<g>
					<path id="BitstreamVeraSans-Roman-50" fill="#555555" d="M676.02,98.927V71.534h12.402c4.6,0,8.145,1.191,10.645,3.564
						c2.51,2.373,3.76,5.762,3.76,10.156c0,4.365-1.25,7.734-3.76,10.107c-2.5,2.373-6.045,3.564-10.645,3.564H676.02z
						 M666.157,107.032h22.266c8.184,0,14.355-1.846,18.535-5.547c4.189-3.691,6.279-9.111,6.279-16.23
						c0-7.197-2.09-12.637-6.279-16.318c-4.18-3.672-10.352-5.508-18.535-5.508H676.02V34.132h-9.863V107.032z"/>
				</g>
				<g>
					<path id="BitstreamVeraSans-Roman-44_1_" fill="#555555" d="M736.323,98.927V42.237h11.924c10.059,0,17.422,2.275,22.09,6.826
						c4.668,4.561,7.002,11.768,7.002,21.592c0,9.766-2.334,16.914-7.002,21.455s-12.031,6.816-22.09,6.816H736.323z
						 M726.459,107.032h20.264c14.131,0,24.492-2.939,31.094-8.809c6.621-5.879,9.922-15.068,9.922-27.568
						c0-12.568-3.32-21.807-9.961-27.695s-16.992-8.828-31.055-8.828h-20.264V107.032z"/>
				</g>
			</g>
		</g>
	</g>
	<g id="xtick_3">
		<g id="line2d_7">
			<g>
				<defs>
					<rect id="SVGID_5_" x="122.138" y="21.021" width="778.41" height="617.041"/>
				</defs>
				<clipPath id="SVGID_6_">
					<use xlink:href="#SVGID_5_"  overflow="visible"/>
				</clipPath>
				
					<path clip-path="url(#SVGID_6_)" fill="none" stroke="#000000" stroke-width="0.5" stroke-linejoin="round" stroke-dasharray="1,3" d="
					M511.342,638.062V21.021"/>
			</g>
		</g>
		<g id="line2d_8">
			<g>
				<g>
					<path id="m080760d0c3_4_" fill="#555555" stroke="#555555" stroke-width="0.5" stroke-linejoin="round" d="M511.342,638.062
						L511.342,638.062"/>
				</g>
			</g>
		</g>
		<g id="line2d_9">
			<g>
				<g>
					<path id="m080760d0c3_5_" fill="#555555" stroke="#555555" stroke-width="0.5" stroke-linejoin="round" d="M511.342,21.021
						L511.342,21.021"/>
				</g>
			</g>
		</g>
		<g id="text_3">
			<g transform="translate(518.4003125 722.48875)rotate(-90.0)scale(0.1 -0.1)">
				<g>
					<path id="BitstreamVeraSans-Roman-20_2_" stroke="#555555" stroke-width="0.5" stroke-linejoin="round" d="M561.083,34.117"/>
				</g>
				<g>
					<path id="BitstreamVeraSans-Roman-46" fill="#555555" d="M602.684,107.027h41.885v-8.301h-32.031V77.242h28.906v-8.301h-28.906
						V34.117h-9.854V107.027z"/>
				</g>
				<g>
					<path id="BitstreamVeraSans-Roman-44_2_" fill="#555555" d="M670.057,98.922v-56.68h11.924c10.068,0,17.432,2.266,22.1,6.816
						c4.658,4.57,6.992,11.758,6.992,21.602c0,9.766-2.334,16.914-6.992,21.445c-4.668,4.551-12.031,6.816-22.1,6.816H670.057z
						 M660.204,107.027h20.264c14.121,0,24.492-2.93,31.094-8.809c6.611-5.879,9.922-15.059,9.922-27.559
						c0-12.578-3.32-21.816-9.971-27.715c-6.631-5.879-16.982-8.828-31.045-8.828h-20.264V107.027z"/>
				</g>
				<g>
					<path id="BitstreamVeraSans-Roman-50_1_" fill="#555555" d="M747.059,98.922V71.539h12.412c4.59,0,8.135,1.172,10.635,3.555
						c2.51,2.383,3.77,5.762,3.77,10.156c0,4.375-1.26,7.734-3.77,10.117c-2.5,2.363-6.045,3.555-10.635,3.555H747.059z
						 M737.206,107.027h22.266c8.174,0,14.355-1.836,18.525-5.547c4.189-3.691,6.289-9.102,6.289-16.23
						c0-7.187-2.1-12.637-6.289-16.309c-4.17-3.672-10.352-5.527-18.525-5.527h-12.412V34.117h-9.854V107.027z"/>
				</g>
			</g>
		</g>
	</g>
	<g id="xtick_4">
		<g id="line2d_10">
			<g>
				<defs>
					<rect id="SVGID_7_" x="122.138" y="21.021" width="778.41" height="617.041"/>
				</defs>
				<clipPath id="SVGID_8_">
					<use xlink:href="#SVGID_7_"  overflow="visible"/>
				</clipPath>
				
					<path clip-path="url(#SVGID_8_)" fill="none" stroke="#000000" stroke-width="0.5" stroke-linejoin="round" stroke-dasharray="1,3" d="
					M659.612,638.062V21.021"/>
			</g>
		</g>
		<g id="line2d_11">
			<g>
				<g>
					<path id="m080760d0c3_6_" fill="#555555" stroke="#555555" stroke-width="0.5" stroke-linejoin="round" d="M659.612,638.062
						L659.612,638.062"/>
				</g>
			</g>
		</g>
		<g id="line2d_12">
			<g>
				<g>
					<path id="m080760d0c3_7_" fill="#555555" stroke="#555555" stroke-width="0.5" stroke-linejoin="round" d="M659.612,21.021
						L659.612,21.021"/>
				</g>
			</g>
		</g>
		<g id="text_4">
			<g transform="translate(667.286852679 817.8871875)rotate(-90.0)scale(0.1 -0.1)">
				<g>
					<path id="BitstreamVeraSans-Roman-20_3_" stroke="#555555" stroke-width="0.5" stroke-linejoin="round" d="M561.084,34.134"/>
				</g>
				<g>
					<path id="BitstreamVeraSans-Roman-42" fill="#555555" d="M612.539,68.939V42.239h15.83c5.303,0,9.229,1.094,11.787,3.301
						c2.559,2.188,3.838,5.547,3.838,10.078c0,4.551-1.279,7.91-3.838,10.078c-2.559,2.168-6.484,3.242-11.787,3.242H612.539z
						 M612.539,98.919V76.946h14.609c4.814,0,8.398,0.918,10.752,2.715c2.363,1.816,3.545,4.57,3.545,8.281
						c0,3.672-1.182,6.426-3.545,8.242c-2.354,1.836-5.938,2.734-10.752,2.734H612.539z M602.686,107.024h25.205
						c7.52,0,13.311-1.563,17.373-4.688c4.072-3.125,6.104-7.559,6.104-13.32c0-4.473-1.035-8.027-3.125-10.664
						c-2.08-2.637-5.146-4.277-9.18-4.922c4.854-1.035,8.623-3.203,11.309-6.523c2.686-3.301,4.033-7.422,4.033-12.383
						c0-6.504-2.217-11.543-6.641-15.078c-4.434-3.555-10.732-5.313-18.906-5.313h-26.172V107.024z"/>
				</g>
				<g>
					<path id="BitstreamVeraSans-Roman-fc" fill="#555555" d="M669.971,55.696v33.125h8.984V56.048c0-5.176,1.006-9.063,3.018-11.66
						c2.021-2.578,5.059-3.867,9.092-3.867c4.844,0,8.672,1.543,11.484,4.629c2.822,3.105,4.238,7.324,4.238,12.656v31.016h8.984
						V34.134h-8.984v8.398c-2.178-3.32-4.707-5.801-7.598-7.402c-2.871-1.621-6.211-2.422-10.029-2.422
						c-6.279,0-11.055,1.953-14.307,5.859S669.971,48.177,669.971,55.696 M697.07,109.915h9.902v-9.863h-9.902V109.915z
						 M677.979,109.915h9.902v-9.863h-9.902V109.915z"/>
				</g>
				<g>
					<path id="BitstreamVeraSans-Roman-6e" fill="#555555" d="M779.746,67.142V34.134h-8.984v32.715
						c0,5.176-1.016,9.043-3.037,11.602c-2.021,2.578-5.039,3.867-9.072,3.867c-4.854,0-8.682-1.543-11.484-4.648
						c-2.803-3.086-4.209-7.285-4.209-12.637V34.134h-9.023v54.687h9.023v-8.516c2.158,3.301,4.688,5.762,7.598,7.383
						c2.92,1.621,6.279,2.441,10.098,2.441c6.279,0,11.025-1.953,14.248-5.84S779.746,74.7,779.746,67.142"/>
				</g>
				<g>
					<path id="BitstreamVeraSans-Roman-64" fill="#555555" d="M833.643,80.521v29.59h8.984V34.134h-8.984v8.203
						c-1.885-3.262-4.277-5.684-7.158-7.266s-6.338-2.363-10.381-2.363c-6.602,0-11.982,2.637-16.133,7.91
						s-6.221,12.207-6.221,20.801s2.07,15.527,6.221,20.801s9.531,7.91,16.133,7.91c4.043,0,7.5-0.801,10.381-2.383
						C829.365,86.185,831.758,83.763,833.643,80.521 M803.027,61.419c0-6.602,1.357-11.777,4.082-15.547
						c2.715-3.75,6.455-5.645,11.201-5.645s8.486,1.895,11.221,5.645c2.734,3.77,4.111,8.945,4.111,15.547
						s-1.377,11.797-4.111,15.547c-2.734,3.77-6.475,5.645-11.221,5.645s-8.486-1.875-11.201-5.645
						C804.385,73.216,803.027,68.021,803.027,61.419"/>
				</g>
				<g>
					<path id="BitstreamVeraSans-Roman-6e_1_" fill="#555555" d="M906.602,67.142V34.134h-8.984v32.715
						c0,5.176-1.016,9.043-3.037,11.602c-2.021,2.578-5.039,3.867-9.072,3.867c-4.854,0-8.682-1.543-11.484-4.648
						c-2.803-3.086-4.209-7.285-4.209-12.637V34.134h-9.023v54.687h9.023v-8.516c2.158,3.301,4.688,5.762,7.598,7.383
						c2.92,1.621,6.279,2.441,10.098,2.441c6.279,0,11.025-1.953,14.248-5.84S906.602,74.7,906.602,67.142"/>
				</g>
				<g>
					<path id="BitstreamVeraSans-Roman-69" fill="#555555" d="M924.512,88.821h8.984V34.134h-8.984V88.821z M924.512,110.11h8.984
						V98.724h-8.984V110.11z"/>
				</g>
				<g>
					<path id="BitstreamVeraSans-Roman-73" fill="#555555" d="M987.148,87.2v-8.496c-2.529,1.309-5.166,2.285-7.9,2.93
						s-5.566,0.977-8.506,0.977c-4.453,0-7.803-0.684-10.029-2.051s-3.34-3.418-3.34-6.152c0-2.09,0.791-3.711,2.393-4.902
						c1.592-1.191,4.795-2.324,9.619-3.398l3.076-0.684c6.377-1.367,10.908-3.301,13.594-5.781c2.695-2.48,4.033-5.957,4.033-10.43
						c0-5.078-2.012-9.102-6.025-12.07c-4.023-2.949-9.551-4.434-16.582-4.434c-2.93,0-5.977,0.273-9.16,0.859
						c-3.174,0.566-6.514,1.426-10.029,2.559v9.277c3.32-1.719,6.592-3.027,9.814-3.887s6.416-1.289,9.58-1.289
						c4.229,0,7.48,0.723,9.746,2.188c2.285,1.445,3.428,3.477,3.428,6.113c0,2.441-0.83,4.316-2.471,5.605
						c-1.641,1.309-5.244,2.559-10.811,3.77l-3.125,0.742c-5.566,1.172-9.59,2.969-12.07,5.391c-2.461,2.422-3.701,5.742-3.701,9.98
						c0,5.137,1.826,9.121,5.469,11.914c3.652,2.793,8.828,4.199,15.537,4.199c3.311,0,6.426-0.254,9.355-0.742
						C981.982,88.919,984.687,88.177,987.148,87.2"/>
				</g>
				<g>
					<path id="BitstreamVeraSans-Roman-20_4_" fill="#555555" d="M994.971,34.134"/>
				</g>
				<g>
					<path id="BitstreamVeraSans-Roman-39" fill="#555555" d="M1037.744,35.638v8.984c2.48-1.172,4.98-2.07,7.51-2.676
						c2.549-0.625,5.039-0.938,7.49-0.938c6.504,0,11.475,2.188,14.902,6.563c3.438,4.375,5.4,11.035,5.889,19.961
						c-1.885-2.793-4.277-4.961-7.188-6.445c-2.891-1.504-6.094-2.266-9.609-2.266c-7.285,0-13.057,2.207-17.305,6.621
						c-4.258,4.414-6.377,10.449-6.377,18.105c0,7.48,2.207,13.477,6.641,18.008c4.424,4.531,10.313,6.797,17.666,6.797
						c8.438,0,14.883-3.242,19.316-9.707c4.453-6.465,6.67-15.84,6.67-28.145c0-11.484-2.725-20.664-8.183-27.52
						c-5.449-6.855-12.773-10.273-21.982-10.273c-2.48,0-4.99,0.234-7.539,0.723C1043.115,33.919,1040.479,34.661,1037.744,35.638
						 M1057.363,66.556c4.434,0,7.939,1.504,10.518,4.531c2.598,3.027,3.896,7.188,3.896,12.461c0,5.234-1.299,9.375-3.896,12.422
						c-2.578,3.047-6.084,4.57-10.518,4.57c-4.424,0-7.93-1.523-10.508-4.57c-2.588-3.047-3.877-7.188-3.877-12.422
						c0-5.273,1.289-9.434,3.877-12.461C1049.434,68.06,1052.939,66.556,1057.363,66.556"/>
				</g>
				<g>
					<path id="BitstreamVeraSans-Roman-30" fill="#555555" d="M1122.158,100.54c-5.068,0-8.887-2.5-11.445-7.5
						s-3.828-12.5-3.828-22.539c0-9.98,1.27-17.48,3.828-22.48s6.377-7.5,11.445-7.5c5.117,0,8.955,2.5,11.504,7.5
						c2.559,5,3.848,12.5,3.848,22.48c0,10.039-1.289,17.539-3.848,22.539C1131.113,98.04,1127.275,100.54,1122.158,100.54
						 M1122.158,108.353c8.184,0,14.424-3.242,18.74-9.707c4.307-6.465,6.465-15.84,6.465-28.145
						c0-12.266-2.158-21.641-6.465-28.105c-4.316-6.465-10.557-9.688-18.74-9.688c-8.164,0-14.404,3.223-18.711,9.688
						c-4.316,6.465-6.475,15.84-6.475,28.105c0,12.305,2.158,21.68,6.475,28.145C1107.754,105.11,1113.994,108.353,1122.158,108.353
						"/>
				</g>
				<g>
					<path id="BitstreamVeraSans-Roman-2f_1_" fill="#555555" d="M1179.394,107.024h8.301l-25.391-82.187h-8.301L1179.394,107.024z"
						/>
				</g>
				<g>
					<path id="BitstreamVeraSans-Roman-44_3_" fill="#555555" d="M1207.363,98.919v-56.68h11.924c10.068,0,17.432,2.266,22.1,6.816
						c4.658,4.57,6.992,11.777,6.992,21.602c0,9.766-2.334,16.914-6.992,21.445c-4.668,4.551-12.031,6.816-22.1,6.816H1207.363z
						 M1197.51,107.024h20.264c14.121,0,24.492-2.93,31.094-8.809c6.611-5.879,9.922-15.059,9.922-27.559
						c0-12.578-3.32-21.816-9.971-27.695c-6.631-5.898-16.982-8.828-31.045-8.828h-20.264V107.024z"/>
				</g>
				<g>
					<path id="BitstreamVeraSans-Roman-69_1_" fill="#555555" d="M1274.121,88.821h8.984V34.134h-8.984V88.821z M1274.121,110.11
						h8.984V98.724h-8.984V110.11z"/>
				</g>
				<g>
					<path id="BitstreamVeraSans-Roman-65" fill="#555555" d="M1348.682,63.724v-4.395h-41.309
						c0.391-6.191,2.256-10.898,5.596-14.141c3.33-3.242,7.979-4.863,13.936-4.863c3.447,0,6.787,0.43,10.029,1.27
						s6.455,2.109,9.658,3.809v-8.496c-3.232-1.367-6.543-2.402-9.922-3.125c-3.389-0.723-6.816-1.074-10.303-1.074
						c-8.721,0-15.635,2.539-20.732,7.598c-5.088,5.098-7.637,11.973-7.637,20.625c0,8.965,2.412,16.055,7.246,21.309
						s11.357,7.891,19.561,7.891c7.354,0,13.174-2.383,17.461-7.109C1346.543,78.294,1348.682,71.849,1348.682,63.724
						 M1339.697,66.36c-0.059,4.902-1.436,8.828-4.121,11.758s-6.25,4.395-10.674,4.395c-5.01,0-9.023-1.406-12.031-4.238
						s-4.746-6.836-5.205-11.973L1339.697,66.36z"/>
				</g>
				<g>
					<path id="BitstreamVeraSans-Roman-20_5_" fill="#555555" d="M1354.004,34.134"/>
				</g>
				<g>
					<path id="BitstreamVeraSans-Roman-47" fill="#555555" d="M1445.303,44.524v19.59h-16.104v8.105h25.869V40.911
						c-3.799-2.695-7.998-4.746-12.588-6.133s-9.482-2.07-14.688-2.07c-11.396,0-20.313,3.32-26.748,9.98
						s-9.648,15.938-9.648,27.812c0,11.914,3.213,21.211,9.648,27.852c6.436,6.66,15.352,10,26.748,10
						c4.746,0,9.268-0.605,13.545-1.777s8.232-2.891,11.846-5.176V90.911c-3.652,3.086-7.52,5.41-11.631,6.973
						c-4.102,1.563-8.408,2.344-12.93,2.344c-8.936,0-15.635-2.48-20.117-7.461c-4.463-4.98-6.699-12.402-6.699-22.266
						c0-9.824,2.236-17.246,6.699-22.227c4.482-4.98,11.182-7.461,20.117-7.461c3.477,0,6.582,0.293,9.307,0.898
						C1440.674,42.317,1443.125,43.255,1445.303,44.524"/>
				</g>
				<g>
					<path id="BitstreamVeraSans-Roman-72" fill="#555555" d="M1504.394,80.423c-1.016,0.586-2.109,1.016-3.301,1.289
						s-2.5,0.41-3.926,0.41c-5.078,0-8.984-1.641-11.699-4.941s-4.082-8.047-4.082-14.238V34.134h-9.023v54.687h9.023v-8.516
						c1.904,3.34,4.355,5.801,7.383,7.402s6.709,2.422,11.045,2.422c0.615,0,1.299-0.039,2.041-0.137
						c0.752-0.059,1.582-0.176,2.49-0.352L1504.394,80.423z"/>
				</g>
				<g>
					<path id="BitstreamVeraSans-Roman-fc_1_" fill="#555555" d="M1512.891,55.696v33.125h8.984V56.048
						c0-5.176,1.006-9.063,3.018-11.66c2.021-2.578,5.059-3.867,9.092-3.867c4.844,0,8.672,1.543,11.484,4.629
						c2.822,3.105,4.238,7.324,4.238,12.656v31.016h8.984V34.134h-8.984v8.398c-2.178-3.32-4.707-5.801-7.598-7.402
						c-2.871-1.621-6.211-2.422-10.029-2.422c-6.279,0-11.055,1.953-14.307,5.859S1512.891,48.177,1512.891,55.696 M1539.99,109.915
						h9.902v-9.863h-9.902V109.915z M1520.898,109.915h9.902v-9.863h-9.902V109.915z"/>
				</g>
				<g>
					<path id="BitstreamVeraSans-Roman-6e_2_" fill="#555555" d="M1622.666,67.142V34.134h-8.984v32.715
						c0,5.176-1.016,9.043-3.037,11.602c-2.012,2.578-5.039,3.867-9.072,3.867c-4.854,0-8.682-1.543-11.484-4.648
						c-2.803-3.086-4.209-7.285-4.209-12.637V34.134h-9.023v54.687h9.023v-8.516c2.158,3.301,4.688,5.762,7.598,7.383
						c2.92,1.621,6.279,2.441,10.098,2.441c6.279,0,11.025-1.953,14.248-5.84S1622.666,74.7,1622.666,67.142"/>
				</g>
				<g>
					<path id="BitstreamVeraSans-Roman-65_1_" fill="#555555" d="M1687.353,63.724v-4.395h-41.309
						c0.391-6.191,2.256-10.898,5.596-14.141c3.33-3.242,7.979-4.863,13.936-4.863c3.447,0,6.787,0.43,10.029,1.27
						s6.455,2.109,9.658,3.809v-8.496c-3.232-1.367-6.543-2.402-9.922-3.125c-3.389-0.723-6.816-1.074-10.303-1.074
						c-8.721,0-15.635,2.539-20.732,7.598c-5.088,5.098-7.637,11.973-7.637,20.625c0,8.965,2.412,16.055,7.246,21.309
						s11.357,7.891,19.561,7.891c7.354,0,13.174-2.383,17.461-7.109C1685.215,78.294,1687.353,71.849,1687.353,63.724
						 M1678.369,66.36c-0.059,4.902-1.436,8.828-4.121,11.758s-6.25,4.395-10.674,4.395c-5.01,0-9.023-1.406-12.031-4.238
						s-4.746-6.836-5.205-11.973L1678.369,66.36z"/>
				</g>
				<g>
					<path id="BitstreamVeraSans-Roman-6e_3_" fill="#555555" d="M1747.568,67.142V34.134h-8.984v32.715
						c0,5.176-1.016,9.043-3.037,11.602c-2.012,2.578-5.039,3.867-9.072,3.867c-4.854,0-8.682-1.543-11.484-4.648
						c-2.803-3.086-4.209-7.285-4.209-12.637V34.134h-9.023v54.687h9.023v-8.516c2.158,3.301,4.688,5.762,7.598,7.383
						c2.92,1.621,6.279,2.441,10.098,2.441c6.279,0,11.025-1.953,14.248-5.84S1747.568,74.7,1747.568,67.142"/>
				</g>
			</g>
		</g>
	</g>
	<g id="xtick_5">
		<g id="line2d_13">
			<g>
				<defs>
					<rect id="SVGID_9_" x="122.138" y="21.021" width="778.41" height="617.041"/>
				</defs>
				<clipPath id="SVGID_10_">
					<use xlink:href="#SVGID_9_"  overflow="visible"/>
				</clipPath>
				
					<path clip-path="url(#SVGID_10_)" fill="none" stroke="#000000" stroke-width="0.5" stroke-linejoin="round" stroke-dasharray="1,3" d="
					M807.879,638.062V21.021"/>
			</g>
		</g>
		<g id="line2d_14">
			<g>
				<g>
					<path id="m080760d0c3_8_" fill="#555555" stroke="#555555" stroke-width="0.5" stroke-linejoin="round" d="M807.879,638.062
						L807.879,638.062"/>
				</g>
			</g>
		</g>
		<g id="line2d_15">
			<g>
				<g>
					<path id="m080760d0c3_9_" fill="#555555" stroke="#555555" stroke-width="0.5" stroke-linejoin="round" d="M807.879,21.021
						L807.879,21.021"/>
				</g>
			</g>
		</g>
		<g id="text_5">
			<g transform="translate(815.162455357 748.75125)rotate(-90.0)scale(0.1 -0.1)">
				<g>
					<path id="BitstreamVeraSans-Roman-20_6_" stroke="#555555" stroke-width="0.5" stroke-linejoin="round" d="M561.082,34.119"/>
				</g>
				<g>
					<path id="BitstreamVeraSans-Roman-44_4_" fill="#555555" d="M612.547,98.924V42.225h11.914c10.068,0,17.432,2.285,22.1,6.836
						c4.668,4.57,7.002,11.758,7.002,21.602c0,9.746-2.334,16.914-7.002,21.445c-4.668,4.551-12.031,6.816-22.1,6.816H612.547z
						 M602.684,107.029h20.264c14.131,0,24.492-2.93,31.094-8.809c6.621-5.879,9.922-15.059,9.922-27.559
						c0-12.578-3.32-21.816-9.971-27.715c-6.631-5.879-16.982-8.828-31.045-8.828h-20.264V107.029z"/>
				</g>
				<g>
					<path id="BitstreamVeraSans-Roman-69_2_" fill="#555555" d="M679.295,88.807h8.984V34.119h-8.984V88.807z M679.295,110.115
						h8.984V98.709h-8.984V110.115z"/>
				</g>
				<g>
					<path id="BitstreamVeraSans-Roman-65_2_" fill="#555555" d="M753.855,63.709v-4.375h-41.309
						c0.4-6.191,2.266-10.898,5.596-14.141s7.979-4.863,13.936-4.863c3.447,0,6.797,0.41,10.029,1.27
						c3.242,0.84,6.465,2.109,9.658,3.809v-8.496c-3.232-1.367-6.533-2.422-9.922-3.125c-3.389-0.723-6.816-1.094-10.293-1.094
						c-8.73,0-15.645,2.539-20.742,7.617c-5.088,5.078-7.637,11.953-7.637,20.625c0,8.945,2.422,16.055,7.246,21.289
						c4.834,5.273,11.357,7.891,19.57,7.891c7.354,0,13.164-2.363,17.451-7.109C751.717,78.279,753.855,71.854,753.855,63.709
						 M744.871,66.365c-0.059,4.902-1.436,8.809-4.121,11.738c-2.686,2.949-6.24,4.414-10.674,4.414
						c-5.01,0-9.014-1.426-12.031-4.258c-3.008-2.832-4.746-6.816-5.205-11.973L744.871,66.365z"/>
				</g>
				<g>
					<path id="BitstreamVeraSans-Roman-20_7_" fill="#555555" d="M759.178,34.119"/>
				</g>
				<g>
					<path id="BitstreamVeraSans-Roman-4c" fill="#555555" d="M800.779,107.029h9.863V42.42h35.498v-8.301h-45.361V107.029z"/>
				</g>
				<g>
					<path id="BitstreamVeraSans-Roman-69_3_" fill="#555555" d="M856.101,88.807h8.984V34.119h-8.984V88.807z M856.101,110.115
						h8.984V98.709h-8.984V110.115z"/>
				</g>
				<g>
					<path id="BitstreamVeraSans-Roman-6e_4_" fill="#555555" d="M929.353,67.147V34.119h-8.984v32.715
						c0,5.195-1.006,9.063-3.027,11.621c-2.021,2.578-5.049,3.848-9.082,3.848c-4.854,0-8.682-1.543-11.484-4.629
						s-4.199-7.305-4.199-12.637V34.119h-9.033v54.687h9.033v-8.496c2.148,3.301,4.688,5.742,7.588,7.383
						c2.92,1.621,6.279,2.422,10.098,2.422c6.279,0,11.025-1.934,14.248-5.82C927.742,80.408,929.353,74.686,929.353,67.147"/>
				</g>
				<g>
					<path id="BitstreamVeraSans-Roman-6b" fill="#555555" d="M946.922,110.115h9.033V65.233l26.807,23.574h11.475L965.232,63.24
						l30.234-29.121h-11.719l-27.793,26.699V34.119h-9.033V110.115z"/>
				</g>
				<g>
					<path id="BitstreamVeraSans-Roman-65_3_" fill="#555555" d="M1048.328,63.709v-4.375h-41.309
						c0.391-6.191,2.256-10.898,5.596-14.141c3.33-3.242,7.979-4.863,13.936-4.863c3.447,0,6.787,0.41,10.029,1.27
						c3.242,0.84,6.455,2.109,9.658,3.809v-8.496c-3.232-1.367-6.543-2.422-9.922-3.125c-3.389-0.723-6.816-1.094-10.303-1.094
						c-8.721,0-15.635,2.539-20.732,7.617c-5.088,5.078-7.637,11.953-7.637,20.625c0,8.945,2.412,16.055,7.246,21.289
						c4.834,5.273,11.357,7.891,19.561,7.891c7.354,0,13.174-2.363,17.461-7.109C1046.189,78.279,1048.328,71.854,1048.328,63.709
						 M1039.344,66.365c-0.059,4.902-1.436,8.809-4.121,11.738c-2.686,2.949-6.25,4.414-10.674,4.414
						c-5.01,0-9.023-1.426-12.031-4.258s-4.746-6.816-5.205-11.973L1039.344,66.365z"/>
				</g>
			</g>
		</g>
	</g>
</g>
<g id="matplotlib.axis_2">
	<g id="ytick_1">
		<g id="line2d_16">
			<g>
				<defs>
					<rect id="SVGID_11_" x="122.138" y="21.021" width="778.41" height="617.041"/>
				</defs>
				<clipPath id="SVGID_12_">
					<use xlink:href="#SVGID_11_"  overflow="visible"/>
				</clipPath>
				
					<path clip-path="url(#SVGID_12_)" fill="none" stroke="#000000" stroke-width="0.5" stroke-linejoin="round" stroke-dasharray="1,3" d="
					M122.138,638.062h778.41"/>
			</g>
		</g>
		<g id="line2d_17">
			<g>
				<g>
					<path id="m080760d0c3_10_" fill="#555555" stroke="#555555" stroke-width="0.5" stroke-linejoin="round" d="M122.138,638.062
						L122.138,638.062"/>
				</g>
			</g>
		</g>
		<g id="line2d_18">
			<g>
				<g>
					<path id="m080760d0c3_11_" fill="#555555" stroke="#555555" stroke-width="0.5" stroke-linejoin="round" d="M900.547,638.062
						L900.547,638.062"/>
				</g>
			</g>
		</g>
		<g id="text_6">
			<g transform="translate(114.5109375 697.80984375)scale(0.1 -0.1)">
				<g>
					<path id="BitstreamVeraSans-Roman-30_1_" fill="#555555" d="M-2.344,627.489c-5.068,0-8.887-2.5-11.445-7.5
						c-2.559-4.99-3.828-12.5-3.828-22.529c0-9.99,1.27-17.48,3.828-22.48s6.377-7.5,11.445-7.5c5.117,0,8.955,2.5,11.504,7.5
						c2.559,5,3.848,12.49,3.848,22.48c0,10.029-1.289,17.539-3.848,22.529C6.611,624.989,2.773,627.489-2.344,627.489
						 M-2.344,635.302c8.184,0,14.424-3.232,18.74-9.697c4.307-6.465,6.465-15.84,6.465-28.145c0-12.275-2.158-21.641-6.465-28.105
						c-4.316-6.465-10.557-9.688-18.74-9.688c-8.164,0-14.404,3.223-18.711,9.688c-4.316,6.465-6.475,15.83-6.475,28.105
						c0,12.305,2.158,21.68,6.475,28.145C-16.749,632.069-10.508,635.302-2.344,635.302"/>
				</g>
			</g>
		</g>
	</g>
	<g id="ytick_2">
		<g id="line2d_19">
			<g>
				<defs>
					<rect id="SVGID_13_" x="122.138" y="21.021" width="778.41" height="617.041"/>
				</defs>
				<clipPath id="SVGID_14_">
					<use xlink:href="#SVGID_13_"  overflow="visible"/>
				</clipPath>
				
					<path clip-path="url(#SVGID_14_)" fill="none" stroke="#000000" stroke-width="0.5" stroke-linejoin="round" stroke-dasharray="1,3" d="
					M122.138,569.501h778.41"/>
			</g>
		</g>
		<g id="line2d_20">
			<g>
				<g>
					<path id="m080760d0c3_12_" fill="#555555" stroke="#555555" stroke-width="0.5" stroke-linejoin="round" d="M122.138,569.501
						L122.138,569.501"/>
				</g>
			</g>
		</g>
		<g id="line2d_21">
			<g>
				<g>
					<path id="m080760d0c3_13_" fill="#555555" stroke="#555555" stroke-width="0.5" stroke-linejoin="round" d="M900.548,569.501
						L900.548,569.501"/>
				</g>
			</g>
		</g>
		<g id="text_7">
			<g transform="translate(108.5875 629.24984375)scale(0.1 -0.1)">
				<g>
					<path id="BitstreamVeraSans-Roman-31" fill="#555555" d="M-21.713,569.381h16.104v55.625l-17.529-3.516v8.984l17.441,3.516
						h9.854v-64.609H20.27v-8.291h-41.982V569.381z"/>
				</g>
				<g>
					<path id="BitstreamVeraSans-Roman-30_2_" fill="#555555" d="M61.285,627.496c-5.078,0-8.896-2.5-11.455-7.5
						c-2.549-4.99-3.828-12.5-3.828-22.539c0-9.98,1.279-17.48,3.828-22.48c2.559-5,6.377-7.5,11.455-7.5
						c5.107,0,8.945,2.5,11.494,7.5c2.568,5,3.848,12.5,3.848,22.48c0,10.039-1.279,17.549-3.848,22.539
						C70.23,624.996,66.393,627.496,61.285,627.496 M61.285,635.308c8.174,0,14.424-3.242,18.73-9.707
						c4.316-6.455,6.475-15.84,6.475-28.145c0-12.266-2.158-21.641-6.475-28.105c-4.307-6.455-10.557-9.688-18.73-9.688
						s-14.404,3.232-18.721,9.688c-4.316,6.465-6.465,15.84-6.465,28.105c0,12.305,2.148,21.689,6.465,28.145
						C46.881,632.066,53.111,635.308,61.285,635.308"/>
				</g>
			</g>
		</g>
	</g>
	<g id="ytick_3">
		<g id="line2d_22">
			<g>
				<defs>
					<rect id="SVGID_15_" x="122.138" y="21.021" width="778.41" height="617.041"/>
				</defs>
				<clipPath id="SVGID_16_">
					<use xlink:href="#SVGID_15_"  overflow="visible"/>
				</clipPath>
				
					<path clip-path="url(#SVGID_16_)" fill="none" stroke="#000000" stroke-width="0.5" stroke-linejoin="round" stroke-dasharray="1,3" d="
					M122.138,500.942h778.41"/>
			</g>
		</g>
		<g id="line2d_23">
			<g>
				<g>
					<path id="m080760d0c3_14_" fill="#555555" stroke="#555555" stroke-width="0.5" stroke-linejoin="round" d="M122.138,500.942
						L122.138,500.942"/>
				</g>
			</g>
		</g>
		<g id="line2d_24">
			<g>
				<g>
					<path id="m080760d0c3_15_" fill="#555555" stroke="#555555" stroke-width="0.5" stroke-linejoin="round" d="M900.548,500.942
						L900.548,500.942"/>
				</g>
			</g>
		</g>
		<g id="text_8">
			<g transform="translate(108.221875 560.68984375)scale(0.1 -0.1)">
				<g>
					<path id="BitstreamVeraSans-Roman-32" fill="#555555" d="M-14.931,569.387h34.424v-8.301h-46.289v8.301
						c3.74,3.877,8.838,9.072,15.303,15.596s10.527,10.742,12.187,12.637c3.154,3.545,5.361,6.543,6.611,9.004
						c1.26,2.451,1.885,4.873,1.885,7.246c0,3.877-1.357,7.031-4.072,9.473c-2.725,2.441-6.27,3.672-10.625,3.672
						c-3.096,0-6.367-0.537-9.805-1.611c-3.428-1.074-7.09-2.705-10.996-4.893v9.971c3.965,1.592,7.676,2.793,11.123,3.604
						c3.457,0.82,6.621,1.221,9.482,1.221c7.559,0,13.574-1.885,18.066-5.674c4.492-3.77,6.738-8.809,6.738-15.117
						c0-3.008-0.566-5.85-1.689-8.535c-1.113-2.676-3.154-5.84-6.123-9.482c-0.82-0.947-3.408-3.682-7.773-8.193
						C-0.839,583.791-6.982,577.492-14.931,569.387"/>
				</g>
				<g>
					<path id="BitstreamVeraSans-Roman-30_3_" fill="#555555" d="M61.28,627.492c-5.068,0-8.887-2.5-11.445-7.5
						c-2.559-4.99-3.828-12.5-3.828-22.529c0-9.99,1.27-17.48,3.828-22.48s6.377-7.5,11.445-7.5c5.117,0,8.955,2.5,11.504,7.5
						c2.559,5,3.848,12.49,3.848,22.48c0,10.029-1.289,17.539-3.848,22.529C70.235,624.992,66.397,627.492,61.28,627.492
						 M61.28,635.305c8.184,0,14.424-3.232,18.74-9.697c4.307-6.465,6.465-15.84,6.465-28.145c0-12.275-2.158-21.641-6.465-28.105
						c-4.316-6.465-10.557-9.688-18.74-9.688c-8.164,0-14.404,3.223-18.711,9.688c-4.316,6.465-6.475,15.83-6.475,28.105
						c0,12.305,2.158,21.68,6.475,28.145C46.875,632.073,53.116,635.305,61.28,635.305"/>
				</g>
			</g>
		</g>
	</g>
	<g id="ytick_4">
		<g id="line2d_25">
			<g>
				<defs>
					<rect id="SVGID_17_" x="122.138" y="21.021" width="778.41" height="617.041"/>
				</defs>
				<clipPath id="SVGID_18_">
					<use xlink:href="#SVGID_17_"  overflow="visible"/>
				</clipPath>
				
					<path clip-path="url(#SVGID_18_)" fill="none" stroke="#000000" stroke-width="0.5" stroke-linejoin="round" stroke-dasharray="1,3" d="
					M122.138,432.381h778.41"/>
			</g>
		</g>
		<g id="line2d_26">
			<g>
				<g>
					<path id="m080760d0c3_16_" fill="#555555" stroke="#555555" stroke-width="0.5" stroke-linejoin="round" d="M122.138,432.381
						L122.138,432.381"/>
				</g>
			</g>
		</g>
		<g id="line2d_27">
			<g>
				<g>
					<path id="m080760d0c3_17_" fill="#555555" stroke="#555555" stroke-width="0.5" stroke-linejoin="round" d="M900.548,432.381
						L900.548,432.381"/>
				</g>
			</g>
		</g>
		<g id="text_9">
			<g transform="translate(108.2515625 492.12984375)scale(0.1 -0.1)">
				<g>
					<path id="BitstreamVeraSans-Roman-33" fill="#555555" d="M6.462,600.399c4.717-1.006,8.398-3.115,11.045-6.309
						c2.656-3.193,3.984-7.129,3.984-11.816c0-7.188-2.48-12.754-7.422-16.699c-4.951-3.945-11.982-5.908-21.094-5.908
						c-3.057,0-6.201,0.303-9.443,0.908c-3.232,0.605-6.582,1.504-10.029,2.715v9.512c2.734-1.592,5.723-2.793,8.975-3.604
						s6.66-1.221,10.215-1.221c6.172,0,10.889,1.221,14.121,3.652c3.242,2.441,4.863,5.986,4.863,10.645
						c0,4.307-1.504,7.666-4.512,10.078c-3.018,2.432-7.207,3.643-12.568,3.643h-8.496v8.105h8.887c4.844,0,8.555,0.967,11.123,2.91
						c2.578,1.934,3.867,4.727,3.867,8.369c0,3.74-1.328,6.611-3.984,8.613c-2.646,2.012-6.445,3.018-11.396,3.018
						c-2.705,0-5.605-0.303-8.701-0.889s-6.494-1.494-10.205-2.725v8.779c3.75,1.045,7.266,1.826,10.537,2.344
						c3.262,0.527,6.348,0.781,9.248,0.781c7.49,0,13.408-1.699,17.764-5.107c4.365-3.389,6.543-7.988,6.543-13.779
						c0-4.043-1.152-7.451-3.467-10.234S10.72,601.473,6.462,600.399"/>
				</g>
				<g>
					<path id="BitstreamVeraSans-Roman-30_4_" fill="#555555" d="M61.286,627.488c-5.078,0-8.896-2.5-11.455-7.5
						c-2.549-4.98-3.828-12.5-3.828-22.529c0-9.99,1.279-17.48,3.828-22.48c2.559-5,6.377-7.5,11.455-7.5
						c5.107,0,8.945,2.5,11.494,7.5c2.568,5,3.848,12.49,3.848,22.48c0,10.029-1.279,17.549-3.848,22.529
						C70.231,624.988,66.394,627.488,61.286,627.488 M61.286,635.301c8.174,0,14.424-3.232,18.73-9.697
						c4.316-6.455,6.475-15.84,6.475-28.145c0-12.266-2.158-21.641-6.475-28.105c-4.307-6.455-10.557-9.688-18.73-9.688
						s-14.404,3.232-18.721,9.688c-4.316,6.465-6.465,15.84-6.465,28.105c0,12.305,2.148,21.689,6.465,28.145
						C46.882,632.069,53.112,635.301,61.286,635.301"/>
				</g>
			</g>
		</g>
	</g>
	<g id="ytick_5">
		<g id="line2d_28">
			<g>
				<defs>
					<rect id="SVGID_19_" x="122.138" y="21.021" width="778.41" height="617.041"/>
				</defs>
				<clipPath id="SVGID_20_">
					<use xlink:href="#SVGID_19_"  overflow="visible"/>
				</clipPath>
				
					<path clip-path="url(#SVGID_20_)" fill="none" stroke="#000000" stroke-width="0.5" stroke-linejoin="round" stroke-dasharray="1,3" d="
					M122.138,363.821h778.41"/>
			</g>
		</g>
		<g id="line2d_29">
			<g>
				<g>
					<path id="m080760d0c3_18_" fill="#555555" stroke="#555555" stroke-width="0.5" stroke-linejoin="round" d="M122.138,363.821
						L122.138,363.821"/>
				</g>
			</g>
		</g>
		<g id="line2d_30">
			<g>
				<g>
					<path id="m080760d0c3_19_" fill="#555555" stroke="#555555" stroke-width="0.5" stroke-linejoin="round" d="M900.548,363.821
						L900.548,363.821"/>
				</g>
			</g>
		</g>
		<g id="text_10">
			<g transform="translate(107.978125 423.56984375)scale(0.1 -0.1)">
				<g>
					<path id="BitstreamVeraSans-Roman-34" fill="#555555" d="M3.679,625.404l-24.912-38.926H3.679V625.404z M1.082,633.998h12.412
						v-47.52h10.4v-8.203h-10.4v-17.188H3.679v17.188h-32.91v9.521L1.082,633.998z"/>
				</g>
				<g>
					<path id="BitstreamVeraSans-Roman-30_5_" fill="#555555" d="M61.287,627.494c-5.078,0-8.896-2.5-11.455-7.5
						c-2.549-4.99-3.828-12.5-3.828-22.529c0-9.99,1.279-17.49,3.828-22.49c2.559-5,6.377-7.5,11.455-7.5
						c5.107,0,8.945,2.5,11.494,7.5c2.568,5,3.848,12.5,3.848,22.49c0,10.029-1.279,17.539-3.848,22.529
						C70.232,624.994,66.394,627.494,61.287,627.494 M61.287,635.307c8.174,0,14.424-3.232,18.73-9.697
						c4.316-6.465,6.475-15.84,6.475-28.145c0-12.275-2.158-21.641-6.475-28.115c-4.307-6.455-10.557-9.688-18.73-9.688
						s-14.404,3.232-18.721,9.688c-4.316,6.475-6.465,15.84-6.465,28.115c0,12.305,2.148,21.68,6.465,28.145
						S53.113,635.307,61.287,635.307"/>
				</g>
			</g>
		</g>
	</g>
	<g id="ytick_6">
		<g id="line2d_31">
			<g>
				<defs>
					<rect id="SVGID_21_" x="122.138" y="21.021" width="778.41" height="617.041"/>
				</defs>
				<clipPath id="SVGID_22_">
					<use xlink:href="#SVGID_21_"  overflow="visible"/>
				</clipPath>
				
					<path clip-path="url(#SVGID_22_)" fill="none" stroke="#000000" stroke-width="0.5" stroke-linejoin="round" stroke-dasharray="1,3" d="
					M122.138,295.261h778.41"/>
			</g>
		</g>
		<g id="line2d_32">
			<g>
				<g>
					<path id="m080760d0c3_20_" fill="#555555" stroke="#555555" stroke-width="0.5" stroke-linejoin="round" d="M122.138,295.261
						L122.138,295.261"/>
				</g>
			</g>
		</g>
		<g id="line2d_33">
			<g>
				<g>
					<path id="m080760d0c3_21_" fill="#555555" stroke="#555555" stroke-width="0.5" stroke-linejoin="round" d="M900.548,295.261
						L900.548,295.261"/>
				</g>
			</g>
		</g>
		<g id="text_11">
			<g transform="translate(108.2609375 355.00984375)scale(0.1 -0.1)">
				<g>
					<path id="BitstreamVeraSans-Roman-35" fill="#555555" d="M-23.318,633.995h38.711v-8.311h-29.687v-17.861
						c1.426,0.488,2.861,0.859,4.287,1.094c1.436,0.244,2.871,0.361,4.307,0.361c8.135,0,14.58-2.227,19.336-6.689
						c4.756-4.453,7.139-10.488,7.139-18.105c0-7.842-2.441-13.945-7.334-18.301c-4.883-4.346-11.768-6.514-20.654-6.514
						c-3.057,0-6.182,0.264-9.355,0.781s-6.445,1.299-9.834,2.344v9.922c2.93-1.592,5.957-2.783,9.082-3.564
						s6.426-1.172,9.902-1.172c5.635,0,10.098,1.484,13.379,4.443c3.291,2.959,4.941,6.973,4.941,12.061
						c0,5.068-1.65,9.082-4.941,12.041c-3.281,2.969-7.744,4.453-13.379,4.453c-2.637,0-5.264-0.283-7.891-0.869
						c-2.607-0.586-5.283-1.494-8.008-2.734V633.995z"/>
				</g>
				<g>
					<path id="BitstreamVeraSans-Roman-30_6_" fill="#555555" d="M61.281,627.501c-5.068,0-8.887-2.5-11.445-7.5
						c-2.559-4.99-3.828-12.5-3.828-22.539c0-9.99,1.27-17.48,3.828-22.48s6.377-7.5,11.445-7.5c5.117,0,8.955,2.5,11.504,7.5
						c2.559,5,3.848,12.49,3.848,22.48c0,10.039-1.289,17.549-3.848,22.539C70.236,625.001,66.398,627.501,61.281,627.501
						 M61.281,635.313c8.184,0,14.424-3.242,18.74-9.707c4.307-6.455,6.465-15.84,6.465-28.144c0-12.266-2.158-21.641-6.465-28.105
						c-4.316-6.455-10.557-9.688-18.74-9.688c-8.164,0-14.404,3.232-18.711,9.688c-4.316,6.465-6.475,15.84-6.475,28.105
						c0,12.305,2.158,21.689,6.475,28.144C46.877,632.071,53.117,635.313,61.281,635.313"/>
				</g>
			</g>
		</g>
	</g>
	<g id="ytick_7">
		<g id="line2d_34">
			<g>
				<defs>
					<rect id="SVGID_23_" x="122.138" y="21.02" width="778.41" height="617.041"/>
				</defs>
				<clipPath id="SVGID_24_">
					<use xlink:href="#SVGID_23_"  overflow="visible"/>
				</clipPath>
				
					<path clip-path="url(#SVGID_24_)" fill="none" stroke="#000000" stroke-width="0.5" stroke-linejoin="round" stroke-dasharray="1,3" d="
					M122.138,226.701h778.41"/>
			</g>
		</g>
		<g id="line2d_35">
			<g>
				<g>
					<path id="m080760d0c3_22_" fill="#555555" stroke="#555555" stroke-width="0.5" stroke-linejoin="round" d="M122.138,226.701
						L122.138,226.701"/>
				</g>
			</g>
		</g>
		<g id="line2d_36">
			<g>
				<g>
					<path id="m080760d0c3_23_" fill="#555555" stroke="#555555" stroke-width="0.5" stroke-linejoin="round" d="M900.548,226.701
						L900.548,226.701"/>
				</g>
			</g>
		</g>
		<g id="text_12">
			<g transform="translate(108.1875 286.44984375)scale(0.1 -0.1)">
				<g>
					<path id="BitstreamVeraSans-Roman-36" fill="#555555" d="M-1.099,601.463c-4.434,0-7.939-1.514-10.537-4.541
						c-2.578-3.018-3.877-7.168-3.877-12.441c0-5.234,1.299-9.385,3.877-12.432c2.598-3.047,6.104-4.57,10.537-4.57
						c4.424,0,7.93,1.523,10.508,4.57c2.588,3.047,3.877,7.197,3.877,12.432c0,5.273-1.289,9.424-3.877,12.441
						C6.831,599.949,3.325,601.463-1.099,601.463 M18.471,632.391v-8.984c-2.48,1.162-4.98,2.061-7.5,2.666
						c-2.52,0.625-5.02,0.938-7.5,0.938c-6.504,0-11.484-2.197-14.922-6.592c-3.428-4.395-5.381-11.035-5.869-19.922
						c1.914,2.832,4.316,5.01,7.217,6.514c2.91,1.514,6.094,2.266,9.58,2.266c7.324,0,13.105-2.217,17.354-6.67
						c4.258-4.434,6.377-10.479,6.377-18.125c0-7.49-2.217-13.496-6.641-18.027c-4.424-4.521-10.312-6.787-17.666-6.787
						c-8.437,0-14.893,3.232-19.346,9.687c-4.463,6.475-6.689,15.84-6.689,28.115c0,11.523,2.734,20.703,8.203,27.559
						S-6.128,635.31,3.081,635.31c2.48,0,4.98-0.244,7.5-0.732S15.737,633.357,18.471,632.391"/>
				</g>
				<g>
					<path id="BitstreamVeraSans-Roman-30_7_" fill="#555555" d="M61.284,627.498c-5.068,0-8.887-2.5-11.455-7.5
						c-2.549-4.99-3.828-12.5-3.828-22.529c0-9.99,1.279-17.49,3.828-22.49c2.568-5,6.387-7.5,11.455-7.5
						c5.117,0,8.945,2.5,11.504,7.5s3.838,12.5,3.838,22.49c0,10.029-1.279,17.539-3.838,22.529
						C70.229,624.998,66.401,627.498,61.284,627.498 M61.284,635.31c8.174,0,14.424-3.232,18.74-9.707
						c4.307-6.455,6.465-15.83,6.465-28.135c0-12.275-2.158-21.641-6.465-28.115c-4.316-6.455-10.566-9.687-18.74-9.687
						c-8.164,0-14.404,3.232-18.721,9.687c-4.307,6.475-6.465,15.84-6.465,28.115c0,12.305,2.158,21.68,6.465,28.135
						C46.879,632.078,53.12,635.31,61.284,635.31"/>
				</g>
			</g>
		</g>
	</g>
	<g id="ytick_8">
		<g id="line2d_37">
			<g>
				<defs>
					<rect id="SVGID_25_" x="122.138" y="21.02" width="778.41" height="617.041"/>
				</defs>
				<clipPath id="SVGID_26_">
					<use xlink:href="#SVGID_25_"  overflow="visible"/>
				</clipPath>
				
					<path clip-path="url(#SVGID_26_)" fill="none" stroke="#000000" stroke-width="0.5" stroke-linejoin="round" stroke-dasharray="1,3" d="
					M122.138,158.14h778.41"/>
			</g>
		</g>
		<g id="line2d_38">
			<g>
				<g>
					<path id="m080760d0c3_24_" fill="#555555" stroke="#555555" stroke-width="0.5" stroke-linejoin="round" d="M122.138,158.14
						L122.138,158.14"/>
				</g>
			</g>
		</g>
		<g id="line2d_39">
			<g>
				<g>
					<path id="m080760d0c3_25_" fill="#555555" stroke="#555555" stroke-width="0.5" stroke-linejoin="round" d="M900.548,158.14
						L900.548,158.14"/>
				</g>
			</g>
		</g>
		<g id="text_13">
			<g transform="translate(108.309375 217.88984375)scale(0.1 -0.1)">
				<g>
					<path id="BitstreamVeraSans-Roman-37" fill="#555555" d="M-25.911,633.999h46.875V629.8l-26.475-68.711h-10.293l24.902,64.6
						h-35.01V633.999z"/>
				</g>
				<g>
					<path id="BitstreamVeraSans-Roman-30_8_" fill="#555555" d="M61.286,627.495c-5.078,0-8.887-2.5-11.455-7.5
						c-2.549-4.98-3.828-12.5-3.828-22.529c0-9.99,1.279-17.48,3.828-22.48c2.568-5,6.377-7.5,11.455-7.5
						c5.117,0,8.945,2.5,11.504,7.5s3.838,12.49,3.838,22.48c0,10.029-1.279,17.549-3.838,22.529
						C70.231,624.995,66.403,627.495,61.286,627.495 M61.286,635.307c8.174,0,14.424-3.232,18.73-9.697
						c4.316-6.455,6.475-15.84,6.475-28.145c0-12.266-2.158-21.641-6.475-28.105c-4.307-6.455-10.557-9.688-18.73-9.688
						c-8.164,0-14.404,3.232-18.721,9.688c-4.307,6.465-6.465,15.84-6.465,28.105c0,12.305,2.158,21.689,6.465,28.145
						C46.882,632.075,53.122,635.307,61.286,635.307"/>
				</g>
			</g>
		</g>
	</g>
	<g id="ytick_9">
		<g id="line2d_40">
			<g>
				<defs>
					<rect id="SVGID_27_" x="122.138" y="21.02" width="778.41" height="617.041"/>
				</defs>
				<clipPath id="SVGID_28_">
					<use xlink:href="#SVGID_27_"  overflow="visible"/>
				</clipPath>
				
					<path clip-path="url(#SVGID_28_)" fill="none" stroke="#000000" stroke-width="0.5" stroke-linejoin="round" stroke-dasharray="1,3" d="
					M122.138,89.581h778.41"/>
			</g>
		</g>
		<g id="line2d_41">
			<g>
				<g>
					<path id="m080760d0c3_26_" fill="#555555" stroke="#555555" stroke-width="0.5" stroke-linejoin="round" d="M122.138,89.581
						L122.138,89.581"/>
				</g>
			</g>
		</g>
		<g id="line2d_42">
			<g>
				<g>
					<path id="m080760d0c3_27_" fill="#555555" stroke="#555555" stroke-width="0.5" stroke-linejoin="round" d="M900.548,89.581
						L900.548,89.581"/>
				</g>
			</g>
		</g>
		<g id="text_14">
			<g transform="translate(108.1671875 149.32984375)scale(0.1 -0.1)">
				<g>
					<path id="BitstreamVeraSans-Roman-38" fill="#555555" d="M-2.34,595.724c-4.687,0-8.369-1.26-11.055-3.77
						s-4.023-5.957-4.023-10.342c0-4.395,1.338-7.852,4.023-10.361s6.367-3.77,11.055-3.77s8.379,1.26,11.084,3.789
						s4.063,5.977,4.063,10.342c0,4.385-1.348,7.832-4.033,10.342C6.097,594.465,2.396,595.724-2.34,595.724 M-12.194,599.904
						c-4.229,1.045-7.529,3.018-9.893,5.908c-2.354,2.91-3.535,6.445-3.535,10.615c0,5.82,2.08,10.42,6.221,13.809
						c4.16,3.389,9.844,5.078,17.061,5.078c7.266,0,12.959-1.689,17.1-5.078c4.131-3.389,6.201-7.988,6.201-13.809
						c0-4.17-1.182-7.705-3.545-10.615c-2.354-2.891-5.635-4.863-9.834-5.908c4.756-1.104,8.447-3.271,11.094-6.494
						c2.656-3.223,3.984-7.158,3.984-11.797c0-7.08-2.148-12.5-6.465-16.279S5.707,559.67-2.34,559.67
						c-8.027,0-14.209,1.885-18.525,5.664s-6.475,9.199-6.475,16.279c0,4.639,1.338,8.574,4.004,11.797
						C-20.661,596.633-16.95,598.801-12.194,599.904 M-15.807,615.49c0-3.779,1.182-6.719,3.535-8.828
						c2.363-2.119,5.674-3.174,9.932-3.174c4.238,0,7.559,1.055,9.941,3.174c2.393,2.109,3.594,5.049,3.594,8.828
						s-1.201,6.729-3.594,8.838c-2.383,2.119-5.703,3.174-9.941,3.174c-4.258,0-7.568-1.055-9.932-3.174
						C-14.625,622.219-15.807,619.269-15.807,615.49"/>
				</g>
				<g>
					<path id="BitstreamVeraSans-Roman-30_9_" fill="#555555" d="M61.283,627.502c-5.068,0-8.887-2.5-11.445-7.5
						c-2.559-4.99-3.828-12.5-3.828-22.529c0-9.99,1.27-17.49,3.828-22.49s6.377-7.5,11.445-7.5c5.117,0,8.955,2.5,11.504,7.5
						c2.559,5,3.848,12.5,3.848,22.49c0,10.029-1.289,17.539-3.848,22.529C70.238,625.002,66.4,627.502,61.283,627.502
						 M61.283,635.314c8.184,0,14.424-3.232,18.74-9.707c4.307-6.455,6.465-15.84,6.465-28.135c0-12.275-2.158-21.641-6.465-28.115
						c-4.316-6.455-10.557-9.688-18.74-9.688c-8.164,0-14.404,3.232-18.711,9.688c-4.316,6.475-6.475,15.84-6.475,28.115
						c0,12.295,2.158,21.68,6.475,28.135C46.878,632.082,53.119,635.314,61.283,635.314"/>
				</g>
			</g>
		</g>
	</g>
	<g id="ytick_10">
		<g id="line2d_43">
			<g>
				<defs>
					<rect id="SVGID_29_" x="122.138" y="21.02" width="778.41" height="617.041"/>
				</defs>
				<clipPath id="SVGID_30_">
					<use xlink:href="#SVGID_29_"  overflow="visible"/>
				</clipPath>
				
					<path clip-path="url(#SVGID_30_)" fill="none" stroke="#000000" stroke-width="0.5" stroke-linejoin="round" stroke-dasharray="1,3" d="
					M122.138,21.02h778.41"/>
			</g>
		</g>
		<g id="line2d_44">
			<g>
				<g>
					<path id="m080760d0c3_28_" fill="#555555" stroke="#555555" stroke-width="0.5" stroke-linejoin="round" d="M122.138,21.02
						L122.138,21.02"/>
				</g>
			</g>
		</g>
		<g id="line2d_45">
			<g>
				<g>
					<path id="m080760d0c3_29_" fill="#555555" stroke="#555555" stroke-width="0.5" stroke-linejoin="round" d="M900.548,21.02
						L900.548,21.02"/>
				</g>
			</g>
		</g>
		<g id="text_15">
			<g transform="translate(108.11875 80.76984375)scale(0.1 -0.1)">
				<g>
					<path id="BitstreamVeraSans-Roman-39_1_" fill="#555555" d="M-23.135,562.615v8.984c2.48-1.182,4.99-2.08,7.52-2.695
						c2.539-0.615,5.029-0.918,7.48-0.918c6.514,0,11.484,2.188,14.912,6.563c3.437,4.375,5.4,11.025,5.889,19.951
						c-1.885-2.803-4.287-4.951-7.187-6.455c-2.9-1.494-6.104-2.246-9.609-2.246c-7.295,0-13.066,2.207-17.314,6.611
						c-4.248,4.414-6.377,10.449-6.377,18.105c0,7.48,2.217,13.477,6.641,17.998c4.424,4.531,10.322,6.797,17.676,6.797
						c8.437,0,14.873-3.232,19.307-9.697c4.453-6.465,6.68-15.84,6.68-28.145c0-11.484-2.734-20.664-8.193-27.51
						c-5.449-6.855-12.773-10.283-21.982-10.283c-2.48,0-4.99,0.244-7.529,0.732C-17.754,560.896-20.391,561.629-23.135,562.615
						 M-3.506,593.513c4.424,0,7.93,1.514,10.518,4.531c2.588,3.037,3.887,7.188,3.887,12.471c0,5.244-1.299,9.385-3.887,12.422
						c-2.588,3.047-6.094,4.561-10.518,4.561c-4.434,0-7.939-1.514-10.518-4.561c-2.588-3.037-3.877-7.178-3.877-12.422
						c0-5.283,1.289-9.434,3.877-12.471C-11.445,595.027-7.939,593.513-3.506,593.513"/>
				</g>
				<g>
					<path id="BitstreamVeraSans-Roman-30_10_" fill="#555555" d="M61.289,627.498c-5.078,0-8.896-2.5-11.455-7.5
						c-2.549-4.99-3.828-12.5-3.828-22.529c0-9.99,1.279-17.48,3.828-22.48c2.559-5,6.377-7.5,11.455-7.5
						c5.107,0,8.945,2.5,11.494,7.5c2.568,5,3.848,12.49,3.848,22.48c0,10.029-1.279,17.539-3.848,22.529
						C70.234,624.998,66.396,627.498,61.289,627.498 M61.289,635.31c8.174,0,14.424-3.232,18.73-9.697
						c4.316-6.465,6.475-15.84,6.475-28.145c0-12.266-2.158-21.641-6.475-28.105c-4.307-6.465-10.557-9.688-18.73-9.688
						s-14.404,3.223-18.721,9.688s-6.465,15.84-6.465,28.105c0,12.305,2.148,21.68,6.465,28.145S53.115,635.31,61.289,635.31"/>
				</g>
			</g>
		</g>
	</g>
</g>
<g id="patch_3">
	<g>
		<defs>
			<rect id="SVGID_31_" x="122.138" y="21.02" width="778.41" height="617.041"/>
		</defs>
		<clipPath id="SVGID_32_">
			<use xlink:href="#SVGID_31_"  overflow="visible"/>
		</clipPath>
		
			<path clip-path="url(#SVGID_32_)" fill="#F18528" stroke="#000000" stroke-width="0.5" stroke-linecap="square" stroke-linejoin="round" d="
			M159.206,638.061h111.201V27.876H159.206V638.061z"/>
	</g>
</g>
<g id="patch_4">
	<g>
		<defs>
			<rect id="SVGID_33_" x="122.138" y="21.02" width="778.41" height="617.041"/>
		</defs>
		<clipPath id="SVGID_34_">
			<use xlink:href="#SVGID_33_"  overflow="visible"/>
		</clipPath>
		
			<path clip-path="url(#SVGID_34_)" fill="#C90F11" stroke="#000000" stroke-width="0.5" stroke-linecap="square" stroke-linejoin="round" d="
			M307.474,638.061h111.201V62.157H307.474V638.061z"/>
	</g>
</g>
<g id="patch_5">
	<g>
		<defs>
			<rect id="SVGID_35_" x="122.138" y="21.02" width="778.41" height="617.041"/>
		</defs>
		<clipPath id="SVGID_36_">
			<use xlink:href="#SVGID_35_"  overflow="visible"/>
		</clipPath>
		
			<path clip-path="url(#SVGID_36_)" fill="#F8DA00" stroke="#000000" stroke-width="0.5" stroke-linecap="square" stroke-linejoin="round" d="
			M455.742,638.061h111.203V267.836H455.742V638.061z"/>
	</g>
</g>
<g id="patch_6">
	<g>
		<defs>
			<rect id="SVGID_37_" x="122.138" y="21.02" width="778.41" height="617.041"/>
		</defs>
		<clipPath id="SVGID_38_">
			<use xlink:href="#SVGID_37_"  overflow="visible"/>
		</clipPath>
		
			<path clip-path="url(#SVGID_38_)" fill="#25A33B" stroke="#000000" stroke-width="0.5" stroke-linecap="square" stroke-linejoin="round" d="
			M604.011,638.061h111.201V356.964H604.011V638.061z"/>
	</g>
</g>
<g id="patch_7">
	<g>
		<defs>
			<rect id="SVGID_39_" x="122.138" y="21.02" width="778.41" height="617.041"/>
		</defs>
		<clipPath id="SVGID_40_">
			<use xlink:href="#SVGID_39_"  overflow="visible"/>
		</clipPath>
		
			<path clip-path="url(#SVGID_40_)" fill="#9682A5" stroke="#000000" stroke-width="0.5" stroke-linecap="square" stroke-linejoin="round" d="
			M752.278,638.061h111.203V425.525H752.278V638.061z"/>
	</g>
</g>
<g id="line2d_46">
	<g>
		<defs>
			<rect id="SVGID_41_" x="122.138" y="21.02" width="778.41" height="617.041"/>
		</defs>
		<clipPath id="SVGID_42_">
			<use xlink:href="#SVGID_41_"  overflow="visible"/>
		</clipPath>
		<path clip-path="url(#SVGID_42_)" fill="none" stroke="#000000" stroke-linejoin="round" stroke-dasharray="6,6" d="
			M122.138,638.061h778.41"/>
	</g>
</g>
<g id="patch_8">
	<path fill="none" stroke="#BCBCBC" stroke-linecap="square" stroke-linejoin="round" d="M122.138,21.02h778.41"/>
</g>
<g id="patch_9">
	<path fill="none" stroke="#BCBCBC" stroke-linecap="square" stroke-linejoin="round" d="M900.548,638.061V21.02"/>
</g>
<g id="patch_10">
	<path fill="none" stroke="#BCBCBC" stroke-linecap="square" stroke-linejoin="round" d="M122.138,638.061h778.41"/>
</g>
<g id="patch_11">
	<path fill="none" stroke="#BCBCBC" stroke-linecap="square" stroke-linejoin="round" d="M122.138,638.061V21.02"/>
</g>
<rect x="197.501" y="3.999" fill="none" width="46" height="28"/>
<text transform="matrix(1 0 0 1 197.5011 24.3823)" fill="#6D6E6D" font-family="'ArialRoundedMTBold'" font-size="28">89</text>
<rect x="345.501" y="38.998" transform="matrix(-0.9997 0.0234 -0.0234 -0.9997 738.2827 109.352)" fill="none" width="46" height="40"/>
<text transform="matrix(1 0 0 1 345.4914 58.8491)" fill="#6D6E6D" font-family="'ArialRoundedMTBold'" font-size="28">84</text>
<rect x="492.501" y="238.999" fill="none" width="46" height="40"/>
<text transform="matrix(1 0 0 1 492.5011 259.3823)" fill="#6D6E6D" font-family="'ArialRoundedMTBold'" font-size="28">54</text>
<rect x="643.501" y="330.999" fill="none" width="46" height="40"/>
<text transform="matrix(1 0 0 1 643.5011 351.3823)" fill="#6D6E6D" font-family="'ArialRoundedMTBold'" font-size="28">41</text>
<rect x="791.501" y="399.999" fill="none" width="46" height="40"/>
<text transform="matrix(1 0 0 1 791.5011 420.3823)" fill="#6D6E6D" font-family="'ArialRoundedMTBold'" font-size="28">31</text>
</svg>
